<?xml version="1.0" encoding="UTF-8"?>
<svg id="Layer_1" data-name="Layer 1" xmlns="http://www.w3.org/2000/svg" viewBox="0 0 7579.89 1280">
  <defs>
    <style>
      .cls-1 {
        fill: #fff;
      }
    </style>
  </defs>
  <path class="cls-1" d="m884.04,6.72h239.33v1012.44h-239.33V6.72Z"/>
  <path class="cls-1" d="m1267.23,125.04c0-71.26,56.47-125.04,131.76-125.04s133.11,53.78,133.11,125.04-57.81,123.7-133.11,123.7-131.76-52.44-131.76-123.7Zm12.1,190.92h240.68v703.2h-240.68V315.96Z"/>
  <path class="cls-1" d="m1669.25,315.96h240.68v107.57c37.65-67.23,111.6-126.38,220.51-126.38,92.77,0,157.31,40.34,190.92,116.97,60.51-82.02,143.86-116.97,232.61-116.97,133.1,0,229.91,86.04,229.91,262.18v459.84h-240.68v-419.5c0-71.27-34.96-106.22-90.08-106.22-64.54,0-107.57,41.68-107.57,118.32v407.4h-237.98v-419.5c0-71.27-34.96-106.22-90.08-106.22-64.54,0-107.57,41.68-107.57,118.32v407.4h-240.68V315.96Z"/>
  <path class="cls-1" d="m3161.71,910.25v108.91h-240.68V6.72h240.68v414.12c40.34-67.23,112.94-123.7,219.16-123.7,164.03,0,297.14,123.7,297.14,364.37v10.75c0,242.02-133.11,363.03-298.49,363.03-104.87,0-182.86-49.74-217.82-125.04Zm271.6-237.98v-10.75c0-123.7-53.78-182.86-138.49-182.86s-139.83,63.19-139.83,181.51v10.76c0,119.66,52.44,180.17,139.83,180.17s138.49-63.2,138.49-178.82Z"/>
  <path class="cls-1" d="m4039.7,57.81h356.3l305.21,961.35h-291.77l-51.09-178.82h-318.66l-51.09,178.82h-256.81L4039.7,57.81Zm53.78,592.94h211.09l-104.87-369.75-106.22,369.75Z"/>
  <path class="cls-1" d="m4796.68,6.72h239.33v1012.44h-239.33V6.72Z"/>
  <path class="cls-1" d="m5147.6,676.3v-10.75c0-225.88,168.07-368.4,385.89-368.4s383.19,138.49,383.19,361.68v10.75c0,228.58-168.07,365.72-384.54,365.72s-384.54-131.76-384.54-358.99Zm524.37-4.03v-10.75c0-118.32-47.06-184.21-138.49-184.21s-139.83,63.2-139.83,181.52v10.75c0,121.01,47.06,186.89,139.83,186.89s138.49-67.23,138.49-184.2Z"/>
  <path class="cls-1" d="m6021.56,315.96h240.68v112.95c37.65-72.61,114.29-131.76,231.26-131.76,135.8,0,229.91,84.7,229.91,264.87v457.15h-240.67v-408.75c0-79.33-30.93-118.32-100.84-118.32s-119.66,43.02-119.66,133.11v393.95h-240.68V315.96Z"/>
  <path class="cls-1" d="m6821.57,1019.16h239.33c10.75,51.09,41.68,91.43,129.07,91.43,106.22,0,149.25-60.51,149.25-147.9v-107.57c-36.31,67.23-112.94,129.08-217.82,129.08-164.03,0-298.49-121.01-298.49-337.48v-10.76c0-207.05,133.11-338.82,298.49-338.82,111.6,0,177.48,47.06,217.82,118.32v-99.5h240.68v644.04c0,209.75-138.49,320-389.92,320s-349.58-100.84-368.4-260.84Zm524.37-373.79v-9.41c0-96.8-49.75-158.66-138.49-158.66s-138.49,63.2-138.49,160v10.76c0,96.8,51.09,158.66,137.14,158.66s139.83-61.85,139.83-161.35Z"/>
  <g>
    <path class="cls-1" d="m541.25,633.97h237.91c-55.4,220.9-255,384.58-492.94,385.2v-224.72c112.16-.51,209.02-65.83,255.03-160.47Z"/>
    <path class="cls-1" d="m286.22,224.72V0c237.94.62,437.54,164.3,492.94,385.2h-237.91c-46.01-94.64-142.87-159.96-255.03-160.47Z"/>
    <path class="cls-1" d="m286.22,224.72v569.72c-.45.03-.88.03-1.34.03C127.54,794.47,0,666.92,0,509.58S127.54,224.7,284.88,224.7c.45,0,.88,0,1.34.03Z"/>
  </g>
</svg>